<svg xmlns="http://www.w3.org/2000/svg" version="1.1" xmlns:xlink="http://www.w3.org/1999/xlink" xmlns:svgjs="http://svgjs.dev/svgjs" width="1000" height="212" viewBox="0 0 1000 212"><g transform="matrix(1,0,0,1,-0.6056348047761162,-0.541272232163692)"><svg viewBox="0 0 396 84" data-background-color="#ffffff" preserveAspectRatio="xMidYMid meet" height="212" width="1000" xmlns="http://www.w3.org/2000/svg" xmlns:xlink="http://www.w3.org/1999/xlink"><defs></defs><g id="tight-bounds" transform="matrix(1,0,0,1,0.24008861730862918,0.2145845126388508)"><svg viewBox="0 0 395.52 83.57093434670419" height="83.57093434670419" width="395.52"><g><svg viewBox="0 0 395.52 83.57093434670419" height="83.57093434670419" width="395.52"><g><svg viewBox="0 0 395.52 83.57093434670419" height="83.57093434670419" width="395.52"><g><svg viewBox="0 0 395.52 83.57093434670419" height="83.57093434670419" width="395.52"><g><svg viewBox="0 0 395.52 83.57093434670419" height="83.57093434670419" width="395.52"><path d="M394.594 17.924C392.735 9.25 387.435 6.838 387.435 6.838 371.165-2.097 350.86-0.171 332.619 1.113 300.414 1.165 268.339 3.073 236.208 4.097 168.767 4.253 100.749 1.685 33.643 8.018 27.339 9.961-6.54 8.4 1.121 19.035 3.129 23.459 10.456 28.369 10.232 32.428 11.236 33.14 12.631 31.509 13.226 32.532 15.309 35.291 18.711 33.99 21.501 35.621 17.614 39.975 20.403 43.601 23.062 47.401 18.377 48.39 12.371 47.921 9.675 51.2 9.396 53.577 7.89 53.126 6.235 53.022 5.026 52.953 2.59 53.213 2.999 53.959 4.394 56.509-1.594 57.984 2.162 60.482-0.422 63.189 3.948 65.531 3.353 68.463 3.278 69.053 3.687 69.556 4.338 69.695 7.22 70.441 3.018 71.898 3.464 73.477 33.029 84.268 65.104 76.808 95.394 81.77 103.259 78.3 97.346 83.001 100.489 82.273 102.943 81.423 104.728 84.945 107.499 82.949 107.927 82.377 107.276 81.024 108.8 81.284 109.6 81.423 110.307 81.388 110.418 80.59 110.586 79.393 109.117 80.139 108.726 79.514 112.947 76.357 111.906 83.869 115.866 83.557 115.68 82.637 114.528 81.319 116.889 81.492 119.232 80.174 119.306 79.081 121.389 82.047 121.463 82.689 121.835 83.14 122.43 83.453 128.938 80.226 135.409 84.598 142.233 83.14 146.417 81.544 150.433 84.008 154.672 83.401 156.16 82.915 157.666 82.047 159.098 83.505 176.632 83.817 195.319 82.516 211.943 83.557 256.364 81.614 303.835 84.355 350.674 81.787 361.719 80.798 373.192 79.393 383.958 78.265 383.958 78.265 392.679 75.177 392.679 61.298S394.538 49.153 394.817 38.102C395.096 27.05 396.398 26.599 394.538 17.924Z" opacity="1" fill="#ed2647" data-fill-palette-color="tertiary"></path><g transform="matrix(1,0,0,1,55.76832,26.230666666666668)"><svg width="283.98335999999995" viewBox="5.050000190734863 -41.5 426.25 46.70000076293945" height="31.109601013370856" data-palette-color="#ffffff"><path d="M37.65-33.7L37.65-33.7Q37.8-32.85 37.88-32.52 37.95-32.2 37.95-31.65L37.95-31.65Q37.95-30 37.23-28.58 36.5-27.15 35.25-26.55L35.25-26.55Q34.25-27.9 32.8-28.88 31.35-29.85 29.63-30.48 27.9-31.1 26.05-31.4 24.2-31.7 22.45-31.7L22.45-31.7Q20.7-31.7 19.18-31.43 17.65-31.15 16.48-30.68 15.3-30.2 14.63-29.5 13.95-28.8 13.95-27.9L13.95-27.9Q14.1-26.8 15.3-25.68 16.5-24.55 18.25-23.48 20-22.4 22.13-21.35 24.25-20.3 26.3-19.35L26.3-19.35Q28.85-18.15 30.7-17.13 32.55-16.1 33.75-14.88 34.95-13.65 35.55-12.1 36.15-10.55 36.15-8.35L36.15-8.35Q36.15-5.8 35.3-3.58 34.45-1.35 32.83 0.3 31.2 1.95 28.9 2.88 26.6 3.8 23.75 3.8L23.75 3.8Q20.95 3.8 17.7 2.95 14.45 2.1 11.63 0.63 8.8-0.85 6.93-2.78 5.05-4.7 5.05-6.85L5.05-6.85Q5.05-7.85 5.63-9.4 6.2-10.95 7.7-12.65L7.7-12.65Q7.85-11.15 9.33-9.1 10.8-7.05 13.75-5.3L13.75-5.3Q16.5-3.7 19.43-2.98 22.35-2.25 24.9-2.25L24.9-2.25Q27.7-2.25 29.45-2.95 31.2-3.65 32.2-4.63 33.2-5.6 33.6-6.6 34-7.6 34.05-8.2L34.05-8.2Q34-9.2 33.13-10.13 32.25-11.05 30.78-11.93 29.3-12.8 27.35-13.7 25.4-14.6 23.3-15.5L23.3-15.5Q20.15-16.9 17.88-18.13 15.6-19.35 14.13-20.63 12.65-21.9 11.98-23.3 11.3-24.7 11.3-26.5L11.3-26.5Q11.3-29.3 13-31.8 14.7-34.3 17.9-35.6L17.9-35.6Q19.5-36.3 21.33-36.6 23.15-36.9 24.9-36.9L24.9-36.9Q28.2-36.9 31.35-36 34.5-35.1 37.65-33.7ZM39.45-0.85L39.45-0.85Q39.45-2.6 39.8-4.98 40.15-7.35 40.82-10.05 41.5-12.75 42.42-15.7 43.35-18.65 44.5-21.6L44.5-21.6Q45.5-24.25 46.82-26.95 48.15-29.65 49.7-32.25 51.25-34.85 52.92-37.2 54.6-39.55 56.3-41.5L56.3-41.5Q57.1-41.5 58.02-41.3 58.95-41.1 59.82-40.78 60.7-40.45 61.42-40 62.15-39.55 62.6-39.1L62.6-39.1Q58.85-35.25 55.85-31.33 52.85-27.4 51.1-23.95L51.1-23.95Q50.15-22.05 49.37-20.4 48.6-18.75 47.95-17.13 47.3-15.5 46.77-13.88 46.25-12.25 45.8-10.45L45.8-10.45Q55.4-22.7 60.05-22.7L60.05-22.7Q61.35-22.7 62.85-21.85 64.35-21 65.5-19.55L65.5-19.55Q63.95-17.85 62.3-15.45 60.65-13.05 59.27-10.63 57.9-8.2 57.02-6.13 56.15-4.05 56.15-3.05L56.15-3.05Q56.15-2.55 56.3-2.38 56.45-2.2 56.95-2.2L56.95-2.2Q57.7-2.2 58.15-2.4 58.6-2.6 58.7-2.6L58.7-2.6Q58.95-2.2 59-2.05 59.05-1.9 59.05-1.8L59.05-1.8Q59.05-1.6 58.45-1.23 57.85-0.85 57.02-0.48 56.2-0.1 55.4 0.2 54.6 0.5 54.2 0.5L54.2 0.5Q53.7 0.5 53.2 0.23 52.7-0.05 52.32-0.5 51.95-0.95 51.72-1.5 51.5-2.05 51.5-2.65L51.5-2.65Q51.5-3.4 51.92-4.88 52.35-6.35 53.1-8.33 53.85-10.3 54.9-12.65 55.95-15 57.15-17.45L57.15-17.45Q57.15-17.65 56.95-17.65L56.95-17.65Q56.8-17.65 56.17-17.25 55.55-16.85 55-16.45L55-16.45Q53.2-15.1 51.37-13.13 49.55-11.15 47.82-8.8 46.1-6.45 44.57-3.83 43.05-1.2 41.95 1.45L41.95 1.45Q41.8 1.8 41.5 2.1 41.2 2.4 41 2.4L41 2.4Q40.85 2.4 40.57 2.05 40.3 1.7 40.07 1.18 39.85 0.65 39.65 0.1 39.45-0.45 39.45-0.85ZM65.4-3.35L65.4-3.35Q65.4-3.8 65.47-4.48 65.55-5.15 65.75-6.28 65.95-7.4 66.27-9 66.59-10.6 67.09-12.85L67.09-12.85Q67.2-13.35 67.55-14.45 67.9-15.55 68.47-16.78 69.05-18 69.87-19.15 70.7-20.3 71.84-20.85L71.84-20.85Q72.7-20.65 74.09-19.83 75.5-19 76.5-17.55L76.5-17.55Q75.34-16.25 74.57-14.95 73.8-13.65 73.17-12.25 72.55-10.85 72.02-9.35 71.5-7.85 70.84-6.2L70.84-6.2Q70.3-4.8 69.84-3.33 69.4-1.85 69.34-0.75L69.34-0.75Q69.34 0.15 69.32 0.53 69.3 0.9 69.05 0.9L69.05 0.9Q68.84 0.9 68.25 0.65 67.65 0.4 67.02-0.13 66.4-0.65 65.9-1.45 65.4-2.25 65.4-3.35ZM74.95-25.05L74.95-25.05Q74.95-25.35 75.09-25.95L75.09-25.95Q74.84-26.2 74.67-26.7 74.5-27.2 74.5-27.6L74.5-27.6Q74.5-28.05 74.62-28.83 74.75-29.6 74.95-30.5 75.15-31.4 75.45-32.38 75.75-33.35 76.05-34.15L76.05-34.15Q76.65-34.15 77.52-33.83 78.4-33.5 79.3-32.98 80.2-32.45 80.95-31.83 81.7-31.2 82.09-30.65L82.09-30.65Q81.55-30.1 80.65-29.13 79.75-28.15 78.9-27.08 78.05-26 77.34-25.05 76.65-24.1 76.45-23.7L76.45-23.7Q75.84-23.8 75.4-24.23 74.95-24.65 74.95-25.05ZM85.24-24.25L85.24-24.25Q86.54-23.85 87.69-22.48 88.84-21.1 89.39-19.45L89.39-19.45Q88.84-18.1 87.69-16.2 86.54-14.3 85.39-12.33 84.24-10.35 83.32-8.58 82.39-6.8 82.24-5.65L82.24-5.65Q83.04-6.5 84.02-7.63 84.99-8.75 85.92-9.88 86.84-11 87.64-11.93 88.44-12.85 88.89-13.3L88.89-13.3Q89.84-14.3 91.14-15.63 92.44-16.95 93.87-18.13 95.29-19.3 96.74-20.13 98.19-20.95 99.39-20.95L99.39-20.95Q100.69-20.95 101.57-20.08 102.44-19.2 102.94-18.25L102.94-18.25Q102.94-18.15 102.57-17.98 102.19-17.8 101.49-17L101.49-17Q100.79-16.1 99.92-14.53 99.04-12.95 98.22-11.13 97.39-9.3 96.84-7.4 96.29-5.5 96.29-3.95L96.29-3.95Q96.29-2.7 96.62-2.35 96.94-2 97.54-2L97.54-2Q98.09-2 98.69-2.25 99.29-2.5 99.64-2.5L99.64-2.5Q99.84-2.4 99.97-2.08 100.09-1.75 100.09-1.5L100.09-1.5Q99.69-1.15 99.14-0.8 98.59-0.45 97.99-0.15 97.39 0.15 96.82 0.35 96.24 0.55 95.79 0.55L95.79 0.55Q94.34 0.55 93.42 0.13 92.49-0.3 91.97-1 91.44-1.7 91.24-2.68 91.04-3.65 91.04-4.75L91.04-4.75Q91.04-5.35 91.14-6.1 91.24-6.85 91.54-7.88 91.84-8.9 92.39-10.33 92.94-11.75 93.79-13.75L93.79-13.75Q93.69-13.75 92.44-13.05 91.19-12.35 89.74-10.9L89.74-10.9Q87.39-8.65 85.52-6.45 83.64-4.25 81.69-1.55L81.69-1.55Q80.59 0 79.77 1.07 78.94 2.15 78.34 2.5L78.34 2.5Q77.29 1.9 76.79 0.83 76.29-0.25 76.04-1.4L76.04-1.4Q76.04-2.35 76.32-3.8 76.59-5.25 77.07-7.03 77.54-8.8 78.24-10.75 78.94-12.7 79.79-14.65L79.79-14.65Q81.69-19.05 83.27-21.55 84.84-24.05 85.24-24.25ZM122.04-20.7L122.04-20.7Q121.84-17.6 120.94-15.38 120.04-13.15 118.37-11.48 116.69-9.8 114.29-8.45 111.89-7.1 108.69-5.85L108.69-5.85Q108.69-5.55 108.67-5.23 108.64-4.9 108.64-4.55L108.64-4.55Q108.64-3.9 108.74-3.2 108.84-2.5 109.09-1.9 109.34-1.3 109.79-0.93 110.24-0.55 110.94-0.55L110.94-0.55Q112.29-0.55 113.59-1.15 114.89-1.75 116.07-2.63 117.24-3.5 118.27-4.53 119.29-5.55 120.09-6.4L120.09-6.4Q120.59-5.95 120.94-5.55L120.94-5.55Q118.69-2.55 116.02-0.58 113.34 1.4 110.94 1.95L110.94 1.95Q107.49 1.55 105.57-0.58 103.64-2.7 103.64-5.7L103.64-5.7Q103.64-7.75 104.22-9.88 104.79-12 105.82-13.98 106.84-15.95 108.22-17.7 109.59-19.45 111.17-20.75 112.74-22.05 114.42-22.8 116.09-23.55 117.74-23.55L117.74-23.55Q120.04-23.25 122.04-20.7ZM118.59-19.05L118.59-19.05Q117.24-18.85 115.79-17.95 114.34-17.05 113.07-15.55 111.79-14.05 110.74-12.05 109.69-10.05 109.09-7.75L109.09-7.75Q113.09-9.75 115.74-12.68 118.39-15.6 118.59-19.05ZM146.34-30.3L146.34-30.3Q144.34-30.3 143.26-31.43 142.19-32.55 142.19-34.15L142.19-34.15Q142.19-34.55 142.31-35.1 142.44-35.65 142.64-36.05L142.64-36.05Q143.29-35.75 144.56-35.63 145.84-35.5 147.54-35.5L147.54-35.5Q150.09-35.5 153.31-35.73 156.54-35.95 159.49-36.2 162.44-36.45 164.69-36.68 166.94-36.9 167.59-36.9L167.59-36.9Q169.44-36.9 170.26-35.52 171.09-34.15 171.49-31.85L171.49-31.85Q170.19-31.95 168.91-32.02 167.64-32.1 166.74-32.1L166.74-32.1Q165.14-32.1 163.51-32 161.89-31.9 160.24-31.7L160.24-31.7Q159.54-30.25 158.69-28.28 157.84-26.3 157.01-24.15 156.19-22 155.44-19.88 154.69-17.75 154.14-16.05L154.14-16.05Q153.04-12.75 152.21-9.95 151.39-7.15 150.76-4.73 150.14-2.3 149.69-0.1 149.24 2.1 148.89 4.2L148.89 4.2Q145.54 3.7 143.29 0L143.29 0Q143.69-1.55 144.26-3.38 144.84-5.2 145.61-7.53 146.39-9.85 147.44-12.8 148.49-15.75 149.84-19.5L149.84-19.5Q150.34-20.9 150.89-22.43 151.44-23.95 151.96-25.45 152.49-26.95 152.91-28.35 153.34-29.75 153.64-30.9L153.64-30.9Q151.54-30.65 149.66-30.48 147.79-30.3 146.34-30.3ZM165.83 1.75L165.83 1.75Q162.98 1.45 161.28-0.75 159.58-2.95 159.58-6.35L159.58-6.35Q159.58-8.35 160.18-10.5 160.78-12.65 161.88-14.68 162.98-16.7 164.48-18.5 165.98-20.3 167.73-21.6L167.73-21.6Q170.48-23.65 172.88-23.65L172.88-23.65Q174.48-22.8 176.03-20.1L176.03-20.1Q176.28-20.1 176.48-20.13 176.68-20.15 176.93-20.15L176.93-20.15Q179.58-20.15 179.58-15.45L179.58-15.45Q179.58-12.3 178.56-9.47 177.53-6.65 175.71-4.35 173.88-2.05 171.36-0.48 168.83 1.1 165.83 1.75ZM168.38-14L168.38-14Q167.53-12.85 166.78-11.5 166.03-10.15 165.48-8.78 164.93-7.4 164.63-6.13 164.33-4.85 164.33-3.85L164.33-3.85Q164.33-2.65 164.73-1.55 165.13-0.45 165.63-0.3L165.63-0.3Q167.88-0.8 169.76-2.18 171.63-3.55 173.01-5.6 174.38-7.65 175.16-10.25 175.93-12.85 175.93-15.8L175.93-15.8Q175.93-17.1 175.78-17.85 175.63-18.6 175.28-19.15L175.28-19.15Q173.08-18.5 171.36-17.05 169.63-15.6 168.38-14ZM195.58-1.1L195.58-1.1Q194.63-1.9 194.31-3.1 193.98-4.3 193.98-5.15L193.98-5.15Q193.98-6.2 194.23-6.95L194.23-6.95Q194.03-6.95 193.33-6.15 192.63-5.35 191.81-4.25 190.98-3.15 190.18-2.1 189.38-1.05 188.98-0.55L188.98-0.55Q188.33 0.15 187.76 0.55 187.18 0.95 186.83 1L186.83 1Q186.03 0.95 185.16 0.68 184.28 0.4 183.51-0.1 182.73-0.6 182.16-1.3 181.58-2 181.38-2.9L181.38-2.9Q181.38-4.3 181.46-5.2 181.53-6.1 181.78-7.15L181.78-7.15Q182.23-9.05 183.11-11.45 183.98-13.85 185.13-16.18 186.28-18.5 187.71-20.53 189.13-22.55 190.73-23.7L190.73-23.7Q191.18-23.7 191.78-23.63 192.38-23.55 193.01-23.35 193.63-23.15 194.21-22.88 194.78-22.6 195.18-22.15L195.18-22.15Q194.73-21.65 192.91-18.8 191.08-15.95 188.83-10.6L188.83-10.6Q188.58-10.05 188.23-9 187.88-7.95 187.53-6.8 187.18-5.65 186.96-4.55 186.73-3.45 186.73-2.8L186.73-2.8Q186.73-2.4 186.86-2.2 186.98-2 187.08-1.9L187.08-1.9Q187.83-2.2 188.98-3.55 190.13-4.9 192.18-7.7L192.18-7.7Q192.68-8.4 193.36-9.3 194.03-10.2 194.73-11.23 195.43-12.25 196.06-13.35 196.68-14.45 197.08-15.55L197.08-15.55Q197.28-16.15 197.61-16.98 197.93-17.8 198.41-18.7 198.88-19.6 199.51-20.53 200.13-21.45 200.98-22.25L200.98-22.25Q201.63-22.25 202.38-22.1 203.13-21.95 203.81-21.73 204.48-21.5 204.98-21.23 205.48-20.95 205.73-20.65L205.73-20.65Q204.83-18.45 203.73-16.3 202.63-14.15 201.68-12.08 200.73-10 200.08-7.95 199.43-5.9 199.43-3.95L199.43-3.95Q199.43-2.9 199.61-2.13 199.78-1.35 199.98-0.83 200.18-0.3 200.36 0.05 200.53 0.4 200.53 0.65L200.53 0.65Q200.53 0.7 200.43 0.8L200.43 0.8Q200.38 0.85 200.33 0.85L200.33 0.85Q199.98 0.85 199.43 0.7 198.88 0.55 198.21 0.28 197.53 0 196.86-0.35 196.18-0.7 195.58-1.1ZM205.48-1L205.48-1Q205.73-2.45 206.35-4.83 206.98-7.2 207.83-9.88 208.68-12.55 209.63-15.25 210.58-17.95 211.48-20.1L211.48-20.1Q212.13-21.65 212.63-22.53 213.13-23.4 213.73-24L213.73-24Q214.43-23.9 215.18-23.65 215.93-23.4 216.63-23.05 217.33-22.7 217.88-22.33 218.43-21.95 218.73-21.6L218.73-21.6Q217.38-20 216.35-17.95 215.33-15.9 214.28-12.7L214.28-12.7Q216.98-15.1 219.05-17.3 221.13-19.5 222.93-22.2L222.93-22.2Q223.23-22.45 223.98-22.45L223.98-22.45Q224.68-22.45 225.33-22.23 225.98-22 226.23-21.6L226.23-21.6Q225.33-19.2 225.33-16.85L225.33-16.85Q225.33-14.65 225.98-13.55L225.98-13.55Q225.93-13.25 225.3-12.4 224.68-11.55 223.93-10.8L223.93-10.8Q222.58-11.5 221.53-12.73 220.48-13.95 219.98-15.4L219.98-15.4Q217.63-13.75 215.98-12.18 214.33-10.6 213.15-8.68 211.98-6.75 211.15-4.25 210.33-1.75 209.58 1.7L209.58 1.7Q209.13 1.65 208.5 1.38 207.88 1.1 207.25 0.7 206.63 0.3 206.13-0.15 205.63-0.6 205.48-1ZM243.28-19.9L243.28-19.9Q243.23-18.95 242.95-17.93 242.68-16.9 242.28-16.07 241.88-15.25 241.43-14.7 240.98-14.15 240.58-14.15L240.58-14.15Q240.03-14.2 239.93-14.9L239.93-14.9Q239.93-15.05 240.05-15.38 240.18-15.7 240.33-16.1 240.48-16.5 240.6-16.9 240.73-17.3 240.73-17.6L240.73-17.6Q240.73-18.3 240.4-18.78 240.08-19.25 239.53-19.25L239.53-19.25Q237.53-19.25 236.48-16.75 235.43-14.25 235.43-9.4L235.43-9.4Q235.43-8.9 235.48-8.8L235.48-8.8Q236.53-8.85 237.35-8.88 238.18-8.9 238.98-8.9L238.98-8.9Q239.03-8.8 239.03-8.5L239.03-8.5Q239.03-8.05 238.83-7.85L238.83-7.85Q237.68-7.6 237-7.43 236.33-7.25 235.98-7.1 235.63-6.95 235.55-6.78 235.48-6.6 235.48-6.3L235.48-6.3Q235.48-5.9 235.5-5.5 235.53-5.1 235.53-4.5L235.53-4.5Q235.53-0.3 233.25 2.25 230.98 4.8 226.93 5.2L226.93 5.2Q226.23 5.15 225.48 4.8 224.73 4.45 224.05 3.9 223.38 3.35 222.88 2.68 222.38 2 222.18 1.3L222.18 1.3Q222.18-0.6 222.98-2.33 223.78-4.05 225.15-5.38 226.53-6.7 228.4-7.53 230.28-8.35 232.48-8.5L232.48-8.5Q232.48-9.75 232.23-10.95 231.98-12.15 231.7-13.28 231.43-14.4 231.18-15.48 230.93-16.55 230.93-17.6L230.93-17.6Q230.93-18.95 231.48-20.28 232.03-21.6 232.93-22.73 233.83-23.85 235.03-24.65 236.23-25.45 237.53-25.75L237.53-25.75Q238.08-25.6 239-24.88 239.93-24.15 240.83-23.25 241.73-22.35 242.43-21.43 243.13-20.5 243.28-19.9ZM226.78 2.9L226.78 2.9Q227.98 2.4 229.05 1.45 230.13 0.5 230.93-0.7 231.73-1.9 232.2-3.25 232.68-4.6 232.68-5.9L232.68-5.9Q231.68-5.75 230.48-4.98 229.28-4.2 228.23-3.13 227.18-2.05 226.48-0.9 225.78 0.25 225.78 1.1L225.78 1.1Q225.78 2.2 226.78 2.9ZM279.92-16.6L279.92-16.6Q278.12-16.6 277.32-17.18 276.52-17.75 276.52-19L276.52-19Q276.52-19.8 276.82-20.85L276.82-20.85Q277.77-20.7 278.65-20.65 279.52-20.6 280.77-20.6L280.77-20.6Q282.37-20.6 283.45-20.63 284.52-20.65 285.25-20.7 285.97-20.75 286.4-20.78 286.82-20.8 287.17-20.8L287.17-20.8Q288.37-20.8 288.92-19.93 289.47-19.05 289.97-16.95L289.97-16.95Q288.52-17.1 287.6-17.15 286.67-17.2 285.97-17.2L285.97-17.2Q285.47-17.2 285.07-17.18 284.67-17.15 284.32-17.15L284.32-17.15Q282.57-14.35 280.3-11.13 278.02-7.9 275.4-5 272.77-2.1 269.92 0.18 267.07 2.45 264.22 3.35L264.22 3.35Q262.27 3.15 260.67 2.4 259.07 1.65 257.87 0.53 256.67-0.6 255.97-2.08 255.27-3.55 255.17-5.25L255.17-5.25Q255.22-7.6 256.15-9.93 257.07-12.25 258.52-14.25 259.97-16.25 261.8-17.85 263.62-19.45 265.47-20.4L265.47-20.4Q263.62-21.2 262.85-22.3 262.07-23.4 262.07-24.7L262.07-24.7Q262.07-26.5 263.35-28.48 264.62-30.45 266.52-32.15 268.42-33.85 270.6-35.08 272.77-36.3 274.57-36.6L274.57-36.6Q275.07-36.5 276-35.98 276.92-35.45 277.82-34.7 278.72-33.95 279.45-33.18 280.17-32.4 280.27-31.85L280.27-31.85Q280.17-31.25 279.85-30.5 279.52-29.75 279.02-29.03 278.52-28.3 277.97-27.65 277.42-27 276.87-26.6L276.87-26.6Q276.37-26.75 276.27-27.1L276.27-27.1Q276.87-27.7 277.42-28.83 277.97-29.95 277.97-30.95L277.97-30.95Q277.97-31.5 277.72-31.68 277.47-31.85 276.92-31.85L276.92-31.85Q275.52-31.85 273.82-30.75 272.12-29.65 270.65-28 269.17-26.35 268.17-24.48 267.17-22.6 267.17-21.05L267.17-21.05Q267.72-21 268.5-20.73 269.27-20.45 270.02-20.05 270.77-19.65 271.35-19.2 271.92-18.75 272.07-18.4L272.07-18.4Q269.62-17.8 267.55-16.05 265.47-14.3 263.97-12.05 262.47-9.8 261.65-7.35 260.82-4.9 260.82-2.95L260.82-2.95Q260.82-1.2 261.57-0.08 262.32 1.05 263.92 1.05L263.92 1.05Q265.27 1.05 266.85 0.18 268.42-0.7 270.1-2.18 271.77-3.65 273.45-5.53 275.12-7.4 276.7-9.38 278.27-11.35 279.65-13.28 281.02-15.2 282.12-16.8L282.12-16.8Q281.67-16.7 281.15-16.65 280.62-16.6 279.92-16.6ZM310.57-30.3L310.57-30.3Q308.57-30.3 307.49-31.43 306.42-32.55 306.42-34.15L306.42-34.15Q306.42-34.55 306.54-35.1 306.67-35.65 306.87-36.05L306.87-36.05Q307.52-35.75 308.79-35.63 310.07-35.5 311.77-35.5L311.77-35.5Q314.32-35.5 317.54-35.73 320.77-35.95 323.72-36.2 326.67-36.45 328.92-36.68 331.17-36.9 331.82-36.9L331.82-36.9Q333.67-36.9 334.49-35.52 335.32-34.15 335.72-31.85L335.72-31.85Q334.42-31.95 333.14-32.02 331.87-32.1 330.97-32.1L330.97-32.1Q329.37-32.1 327.74-32 326.12-31.9 324.47-31.7L324.47-31.7Q323.77-30.25 322.92-28.28 322.07-26.3 321.24-24.15 320.42-22 319.67-19.88 318.92-17.75 318.37-16.05L318.37-16.05Q317.27-12.75 316.44-9.95 315.62-7.15 314.99-4.73 314.37-2.3 313.92-0.1 313.47 2.1 313.12 4.2L313.12 4.2Q309.77 3.7 307.52 0L307.52 0Q307.92-1.55 308.49-3.38 309.07-5.2 309.84-7.53 310.62-9.85 311.67-12.8 312.72-15.75 314.07-19.5L314.07-19.5Q314.57-20.9 315.12-22.43 315.67-23.95 316.19-25.45 316.72-26.95 317.14-28.35 317.57-29.75 317.87-30.9L317.87-30.9Q315.77-30.65 313.89-30.48 312.02-30.3 310.57-30.3ZM323.76-1L323.76-1Q324.01-2.45 324.64-4.83 325.26-7.2 326.11-9.88 326.96-12.55 327.91-15.25 328.86-17.95 329.76-20.1L329.76-20.1Q330.41-21.65 330.91-22.53 331.41-23.4 332.01-24L332.01-24Q332.71-23.9 333.46-23.65 334.21-23.4 334.91-23.05 335.61-22.7 336.16-22.33 336.71-21.95 337.01-21.6L337.01-21.6Q335.66-20 334.64-17.95 333.61-15.9 332.56-12.7L332.56-12.7Q335.26-15.1 337.34-17.3 339.41-19.5 341.21-22.2L341.21-22.2Q341.51-22.45 342.26-22.45L342.26-22.45Q342.96-22.45 343.61-22.23 344.26-22 344.51-21.6L344.51-21.6Q343.61-19.2 343.61-16.85L343.61-16.85Q343.61-14.65 344.26-13.55L344.26-13.55Q344.21-13.25 343.59-12.4 342.96-11.55 342.21-10.8L342.21-10.8Q340.86-11.5 339.81-12.73 338.76-13.95 338.26-15.4L338.26-15.4Q335.91-13.75 334.26-12.18 332.61-10.6 331.44-8.68 330.26-6.75 329.44-4.25 328.61-1.75 327.86 1.7L327.86 1.7Q327.41 1.65 326.79 1.38 326.16 1.1 325.54 0.7 324.91 0.3 324.41-0.15 323.91-0.6 323.76-1ZM362.36-20.2L362.36-20.2Q362.86-20.2 363.54-20.03 364.21-19.85 364.76-19.58 365.31-19.3 365.69-19 366.06-18.7 366.06-18.45L366.06-18.45Q365.06-16.35 364.21-14.23 363.36-12.1 362.76-10.15 362.16-8.2 361.84-6.5 361.51-4.8 361.51-3.55L361.51-3.55Q361.51-2.15 361.81-1.23 362.11-0.3 362.81 0.1L362.81 0.1Q362.21 0.5 361.26 0.75 360.31 1 359.56 1L359.56 1Q356.86 1 356.86-2.7L356.86-2.7Q356.86-5.55 358.76-10.5L358.76-10.5Q357.76-8.2 356.46-6.18 355.16-4.15 353.81-2.6 352.46-1.05 351.09-0.08 349.71 0.9 348.56 1.1L348.56 1.1Q346.71 1 345.56-0.68 344.41-2.35 344.41-4.95L344.41-4.95Q344.41-7.75 345.61-10.85 346.81-13.95 348.69-16.6 350.56-19.25 352.76-21.03 354.96-22.8 357.01-22.9L357.01-22.9Q357.51-22.75 358.14-22.3 358.76-21.85 359.34-21.25 359.91-20.65 360.31-20.03 360.71-19.4 360.76-18.95L360.76-18.95Q358.76-18.65 356.64-17 354.51-15.35 352.79-13.03 351.06-10.7 349.96-8.05 348.86-5.4 348.86-3.1L348.86-3.1Q348.86-2.15 349.56-1.9L349.56-1.9Q351.01-2.2 352.91-4.38 354.81-6.55 357.51-11.1L357.51-11.1Q358.01-12 358.64-13.1 359.26-14.2 359.91-15.4 360.56-16.6 361.19-17.82 361.81-19.05 362.36-20.2ZM370.76-17.7L370.76-17.7Q370.76-18.6 370.88-19.4 371.01-20.2 371.41-20.78 371.81-21.35 372.51-21.68 373.21-22 374.36-22L374.36-22Q375.06-22 375.93-21.85 376.81-21.7 377.21-21.3L377.21-21.3Q377.01-20.45 376.88-19.8 376.76-19.15 376.68-18.38 376.61-17.6 376.56-16.53 376.51-15.45 376.46-13.75L376.46-13.75Q376.36-10.35 376.13-7.68 375.91-5 375.11-2.35L375.11-2.35Q375.11-2.15 375.26-2.15L375.26-2.15Q376.01-2.7 376.96-3.75 377.91-4.8 378.96-6.13 380.01-7.45 381.06-8.95 382.11-10.45 383.01-11.9L383.01-11.9Q384.21-14 385.66-17.15 387.11-20.3 388.06-23.9L388.06-23.9Q388.36-23.9 388.83-23.78 389.31-23.65 389.78-23.48 390.26-23.3 390.63-23.1 391.01-22.9 391.16-22.75L391.16-22.75Q391.06-20.6 390.13-18.35 389.21-16.1 387.91-14 386.61-11.9 385.16-10.05 383.71-8.2 382.51-6.85L382.51-6.85Q380.11-4.05 377.68-1.85 375.26 0.35 371.91 2.4L371.91 2.4Q370.61 1.9 369.86 1.07 369.11 0.25 369.11-0.65L369.11-0.65Q369.11-1.25 369.38-2.02 369.66-2.8 370.01-4.03 370.36-5.25 370.63-7.1 370.91-8.95 370.91-11.8L370.91-11.8Q370.91-13.45 370.83-15.13 370.76-16.8 370.76-17.7ZM408.31-20.7L408.31-20.7Q408.11-17.6 407.2-15.38 406.31-13.15 404.63-11.48 402.95-9.8 400.56-8.45 398.16-7.1 394.95-5.85L394.95-5.85Q394.95-5.55 394.93-5.23 394.91-4.9 394.91-4.55L394.91-4.55Q394.91-3.9 395-3.2 395.11-2.5 395.36-1.9 395.61-1.3 396.06-0.93 396.5-0.55 397.2-0.55L397.2-0.55Q398.56-0.55 399.86-1.15 401.16-1.75 402.33-2.63 403.5-3.5 404.53-4.53 405.56-5.55 406.36-6.4L406.36-6.4Q406.86-5.95 407.2-5.55L407.2-5.55Q404.95-2.55 402.28-0.58 399.61 1.4 397.2 1.95L397.2 1.95Q393.75 1.55 391.83-0.58 389.91-2.7 389.91-5.7L389.91-5.7Q389.91-7.75 390.48-9.88 391.06-12 392.08-13.98 393.11-15.95 394.48-17.7 395.86-19.45 397.43-20.75 399-22.05 400.68-22.8 402.36-23.55 404-23.55L404-23.55Q406.31-23.25 408.31-20.7ZM404.86-19.05L404.86-19.05Q403.5-18.85 402.06-17.95 400.61-17.05 399.33-15.55 398.06-14.05 397-12.05 395.95-10.05 395.36-7.75L395.36-7.75Q399.36-9.75 402-12.68 404.66-15.6 404.86-19.05ZM410.55-3.2L410.55-3.2Q410.55-5.4 411.6-9.38 412.65-13.35 414.55-18.65L414.55-18.65Q417.65-27.1 420.38-32.73 423.1-38.35 425.7-41.5L425.7-41.5Q426.3-41.4 427.18-41 428.05-40.6 428.9-40.13 429.75-39.65 430.43-39.15 431.1-38.65 431.3-38.35L431.3-38.35Q427.4-33.75 424.45-28.45 421.5-23.15 419.05-16.3L419.05-16.3Q416.95-10.4 415.85-5.68 414.75-0.95 414.75 2.2L414.75 2.2Q414.75 3.05 414.75 3.25 414.75 3.45 414.8 3.65L414.8 3.65Q414.1 3.55 413.6 3.3 413.1 3.05 412.95 2.7L412.95 2.7Q412.85 2.45 412.4 1.98 411.95 1.5 411.6 1.25L411.6 1.25Q411.15 0.95 410.85-0.33 410.55-1.6 410.55-3.2Z" opacity="1" transform="matrix(1,0,0,1,0,0)" fill="#ffffff" class="undefined-text-0" data-fill-palette-color="quaternary" id="text-0"></path></svg></g></svg></g></svg></g></svg></g><g></g></svg></g></svg><rect width="395.52" height="83.57093434670419" fill="none" stroke="none" visibility="hidden"></rect></g></svg></g></svg>