<svg xmlns="http://www.w3.org/2000/svg" version="1.1" xmlns:xlink="http://www.w3.org/1999/xlink" xmlns:svgjs="http://svgjs.dev/svgjs" width="1000" height="290" viewBox="0 0 1000 290"><g transform="matrix(1,0,0,1,-0.6060606060606233,0.12210479618994441)"><svg viewBox="0 0 396 115" data-background-color="#d9bca9" preserveAspectRatio="xMidYMid meet" height="290" width="1000" xmlns="http://www.w3.org/2000/svg" xmlns:xlink="http://www.w3.org/1999/xlink"><defs></defs><g id="tight-bounds" transform="matrix(1,0,0,1,0.2400000000000091,-0.04842086745463803)"><svg viewBox="0 0 395.52 115.09684173490928" height="115.09684173490928" width="395.52"><g><svg viewBox="0 0 397.4975999999999 115.6723259435838" height="115.09684173490928" width="395.52"><g><rect width="397.4975999999999" height="3.5428905677653524" x="0" y="63.56842532393609" fill="#000000" opacity="1" stroke-width="0" stroke="transparent" fill-opacity="1" class="rect-o-0" data-fill-palette-color="secondary" rx="1%" id="o-0" data-palette-color="#000000"></rect></g><g transform="matrix(1,0,0,1,0.9887999999999693,76.38589852983063)"><svg viewBox="0 0 395.52 39.286427413753174" height="39.286427413753174" width="395.52"><g><svg viewBox="0 0 395.52 39.286427413753174" height="39.286427413753174" width="395.52"><g><svg viewBox="0 0 395.52 39.286427413753174" height="39.286427413753174" width="395.52"><g transform="matrix(1,0,0,1,0,0)"><svg width="395.52" viewBox="2.5 -39.25 431.8500061035156 42.900001525878906" height="39.286427413753174" data-palette-color="#000000"><path d="M22.75-35.6Q24-35.1 24-34.2L24-34.2Q24-33.3 22.75-31.9L22.75-31.9Q22.2-31.95 21.15-31.95L21.15-31.95Q18.85-31.95 16.75-31.33 14.65-30.7 12.4-29.4L12.4-29.4Q11.35-28.75 10.6-27.75L10.6-27.75Q10.05-27.15 10.05-26.35L10.05-26.35Q10.05-25 11.55-23.75L11.55-23.75Q13-22.25 16.3-18.3L16.3-18.3 17.45-17.1Q19.9-14.45 21.33-12.6 22.75-10.75 23.75-8.35L23.75-8.35Q24.15-7.3 24.15-6.45L24.15-6.45Q24.15-4.3 22.5-2.5L22.5-2.5Q20.6-0.4 18.1 0.58 15.6 1.55 12.45 1.8L12.45 1.8Q12.05 1.85 11.5 1.9 10.95 1.95 10.25 1.95L10.25 1.95Q9.8 1.95 8.9 1.85L8.9 1.85Q7.8 1.9 6.6 1.48 5.4 1.05 4.4 0.25L4.4 0.25Q2.5-1.35 2.5-3.3L2.5-3.3Q2.5-4.95 3.9-6.65L3.9-6.65Q4.6-6.55 4.73-6.23 4.85-5.9 4.78-5.5 4.7-5.1 4.7-4.85L4.7-4.85Q4.7-4.7 4.8-4.4L4.8-4.4Q6.75-3.5 9.45-3.5L9.45-3.5Q12.45-3.5 15.13-4.53 17.8-5.55 18.4-7.05L18.4-7.05Q18.75-8.05 16.7-10.58 14.65-13.1 12.1-15.5L12.1-15.5Q9.7-17.65 7.75-19.75L7.75-19.75Q6.65-20.95 6.03-22.53 5.4-24.1 5.4-25.8L5.4-25.8Q5.4-28.1 6.58-30.15 7.75-32.2 10.1-33.5L10.1-33.5Q14.6-36.05 19.3-36.05L19.3-36.05Q19.95-36.05 21.15-35.95L21.15-35.95Q22.25-35.85 22.75-35.6L22.75-35.6ZM34.8-26.7Q34.85-21.85 35.07-18.73 35.3-15.6 36.15-12.1L36.15-12.1Q38.25-12.85 40-12.85L40-12.85Q42.95-12.85 45.1-11.1 47.25-9.35 48-6.75L48-6.75Q48.6-4.85 48.6-1.65L48.6-1.65 48.55 2.25Q48.55 2.6 48.15 3.05 47.75 3.5 47.35 3.6L47.35 3.6Q47.2 3.65 46.9 3.65L46.9 3.65Q45.75 3.65 44.5 2.53 43.25 1.4 43.2 0.3L43.2 0.3 43.1-2.3Q43.1-3.2 43-4.9L43-4.9Q42.9-6.65 42.6-7.4L42.6-7.4Q42.3-8.25 41.85-8.7 41.4-9.15 40.85-9.15L40.85-9.15Q40.45-9.15 39.97-8.8 39.5-8.45 39.15-7.85L39.15-7.85Q38.1-6.2 36.4-1.35L36.4-1.35Q35.85 0.4 34.45 0.4L34.45 0.4Q34.3 0.4 33.8 0.3L33.8 0.3Q33.5 0.2 32.65-0.03 31.8-0.25 31.32-0.75 30.85-1.25 30.85-2.2L30.85-2.2Q30.85-11.65 29.7-17.85L29.7-17.85Q29.15-20.95 29.15-25L29.15-25 29.15-28.35 29.15-30.1Q29.15-30.8 29.9-31.3 30.65-31.8 31.6-31.8L31.6-31.8Q32.4-31.8 32.95-31.45L32.95-31.45Q33.95-30.85 34.37-29.95 34.8-29.05 34.8-27.7L34.8-27.7 34.8-26.7ZM58.25-23.3Q58.15-23 57.52-22.65 56.9-22.3 56.5-22L56.5-22 55.09-22.75Q53.05-23.85 52.3-24.5L52.3-24.5Q51.9-24.8 51.9-25.25L51.9-25.25Q51.9-25.55 52.12-25.78 52.34-26 52.8-26L52.8-26Q54.75-26 57.55-25L57.55-25Q57.84-24.95 58.09-24.33 58.34-23.7 58.25-23.3L58.25-23.3ZM53.75-14Q53.9-14.65 53.95-14.95 54-15.25 54-15.6L54-15.6Q54-16.3 54.42-16.7 54.84-17.1 56.05-17.1L56.05-17.1Q57.45-17.1 58.52-16.23 59.59-15.35 59.84-13.95L59.84-13.95Q60-13.25 60.05-12.4 60.09-11.55 60.09-11.3L60.09-11.3 60.8-2.75Q60.95-1.4 60.42-0.68 59.9 0.05 58.45 0.05L58.45 0.05Q57.2 0.05 56.32-0.65 55.45-1.35 55.25-2.45L55.25-2.45 53.95-13.05 53.75-14ZM73.04-18.85Q73.04-18.55 72.94-18.07 72.84-17.6 72.89-17.45L72.89-17.45Q76.34-18.2 78.74-18.2L78.74-18.2Q82.49-18.2 84.39-14.6L84.39-14.6Q85.94-11.55 85.94-7.85L85.94-7.85Q85.94-6.9 85.74-5.1L85.74-5.1Q85.59-3.9 84.79-3.18 83.99-2.45 82.89-2.45L82.89-2.45Q81.74-2.45 81.27-2.88 80.79-3.3 80.72-3.85 80.64-4.4 80.64-5.6L80.64-5.6 80.59-6.65Q80.49-9.65 80.19-11.85L80.19-11.85Q80.04-12.75 79.52-13.13 78.99-13.5 78.14-13.5L78.14-13.5Q77.34-13.5 76.24-13.25L76.24-13.25Q74.54-12.8 73.97-12.55 73.39-12.3 72.29-11.5L72.29-11.5Q71.94-11.25 71.79-10.5 71.64-9.75 71.64-9.65L71.64-9.65Q70.99-6.45 70.24-2L70.24-2Q70.19-1.8 70.04-1.05 69.89-0.3 69.47 0.03 69.04 0.35 68.24 0.25L68.24 0.25Q65.09-0.15 65.04-2.4L65.04-2.4Q64.99-5.3 65.49-9.25L65.49-9.25Q65.84-12.1 66.14-13.85L66.14-13.85Q66.24-14.65 66.42-15.8 66.59-16.95 66.74-18.45L66.74-18.45Q66.89-19.6 67.04-20.15 67.19-20.7 67.74-21.08 68.29-21.45 69.44-21.45L69.44-21.45Q70.89-21.45 71.84-20.8 72.79-20.15 73.04-18.95L73.04-18.95 73.04-18.85ZM99.99-7.8Q99.49-7.5 98.54-7.5L98.54-7.5Q98.19-7.5 97.69-7.55 97.19-7.6 96.84-7.55L96.84-7.55Q97.24-5.9 98.74-4.88 100.24-3.85 102.09-3.85L102.09-3.85Q103.69-3.85 104.94-4.55L104.94-4.55Q106.79-5.5 108.14-6.8L108.14-6.8Q109.09-7.75 109.94-7.75L109.94-7.75Q110.49-7.75 110.89-7.2L110.89-7.2Q111.29-6.55 111.29-5.6L111.29-5.6Q111.29-4.6 110.89-4.05L110.89-4.05Q109.59-2.05 107.52-1.3 105.44-0.55 102.69-0.55L102.69-0.55Q99.84-0.55 97.19-1.8 94.54-3.05 92.67-5.23 90.79-7.4 90.19-10.05L90.19-10.05Q89.79-11.6 89.79-13.1L89.79-13.1Q89.79-15.45 91.12-16.9 92.44-18.35 95.39-19.65L95.39-19.65Q98.09-20.8 100.39-20.8L100.39-20.8Q102.04-20.8 103.59-20.3L103.59-20.3Q108.39-18.8 108.39-16.2L108.39-16.2Q108.39-14.55 106.44-12.2L106.44-12.2Q105.49-11.1 104.19-10.25 102.89-9.4 101.67-8.72 100.44-8.05 99.99-7.8L99.99-7.8ZM102.09-17.05Q102.04-17.3 101.72-17.48 101.39-17.65 101.34-17.7L101.34-17.7Q99.99-17.8 98.59-16.93 97.19-16.05 96.27-14.7 95.34-13.35 95.34-12.1L95.34-12.1 95.39-11.7Q95.44-11.5 95.92-11.2 96.39-10.9 96.49-11L96.49-11Q100.04-13.65 101.84-15.25L101.84-15.25Q102.14-15.55 102.14-16.35L102.14-16.35Q102.14-16.85 102.09-17.05L102.09-17.05ZM139.54-17.25Q139.69-19.3 139.84-21.03 139.99-22.75 140.14-24.15L140.14-24.15 140.54-28.15Q136.64-27.55 132.24-25.85L132.24-25.85Q131.19-25.45 130.29-25.45L130.29-25.45Q128.94-25.45 127.81-26.2 126.69-26.95 126.04-28.4L126.04-28.4Q126.34-29.5 127.16-30.05 127.99-30.6 129.44-31.15L129.44-31.15Q136.39-33.7 145.34-33.65L145.34-33.65Q149.59-33.65 154.21-33.3 158.84-32.95 159.64-32.9L159.64-32.9 163.14-32.65Q163.34-32.65 163.81-32.65 164.29-32.65 164.59-32.43 164.89-32.2 164.89-31.7L164.89-31.7Q164.89-30.45 163.09-30.25L163.09-30.25Q158.59-29.75 156.69-29.55L156.69-29.55Q154.74-29.45 153.74-29.35L153.74-29.35Q149.84-29.1 147.89-28.95L147.89-28.95Q146.69-28.85 146.24-28.68 145.79-28.5 145.66-28.08 145.54-27.65 145.44-26.3L145.44-26.3Q145.19-23.15 144.39-15.45L144.39-15.45Q143.59-8.5 143.39-5.85L143.39-5.85Q143.34-4.4 142.74-2.35L142.74-2.35Q142.34-1.05 142.09-0.63 141.84-0.2 141.36-0.1 140.89 0 139.59-0.05L139.59-0.05Q138.64-0.05 138.11-0.48 137.59-0.9 137.59-1.65L137.59-1.65Q137.59-1.8 137.69-2.3L137.69-2.3Q138.79-6.65 139.54-17.25L139.54-17.25ZM165.48-3.35Q163.93-2.4 161.93-2.4L161.93-2.4Q159.73-2.4 157.71-3.53 155.68-4.65 154.48-6.75 153.28-8.85 153.48-11.55L153.48-11.55 153.73-12.75Q154.03-14.55 154.23-15.4L154.23-15.4Q154.68-17.25 156.03-18 157.38-18.75 159.63-19.2L159.63-19.2Q161.08-19.5 162.48-19.5L162.48-19.5Q166.88-19.5 169.88-16.55L169.88-16.55Q171.48-14.95 171.48-12.65L171.48-12.65Q171.48-10.4 169.83-7.8L169.83-7.8Q167.93-4.85 165.48-3.35L165.48-3.35ZM161.28-16.95Q160.48-15 159.58-12.1L159.58-12.1 159.08-10.6 159.43-10.45Q159.43-10.1 159.46-9.38 159.48-8.65 159.63-8.15L159.63-8.15Q160.18-6.6 160.88-6.25L160.88-6.25Q161.18-6.1 161.76-6.4 162.33-6.7 162.78-7.1L162.78-7.1Q163.48-7.7 165.03-9.6L165.03-9.6Q166.18-10.9 166.18-12.7L166.18-12.7Q166.18-14.25 165.31-15.5 164.43-16.75 162.88-17.2L162.88-17.2Q162.73-17.25 162.33-17.25L162.33-17.25Q161.38-17.25 161.28-16.95L161.28-16.95ZM179.68-21Q180.93-20.65 181.46-20.15 181.98-19.65 181.98-18.8L181.98-18.8Q181.98-18.4 181.83-17.75L181.83-17.75Q181.28-15.5 181.23-13.25L181.23-13.25Q181.18-10.7 182.03-8.55L182.03-8.55Q182.33-7.8 182.61-7.48 182.88-7.15 183.28-7.15L183.28-7.15Q183.78-7.15 184.58-8.05L184.58-8.05Q186.43-10.25 187.33-12.45 188.23-14.65 188.43-17L188.43-17Q188.58-18.55 188.93-18.95L188.93-18.95Q189.13-19.15 189.58-19.2 190.03-19.25 190.88-19.25L190.88-19.25Q192.23-19.15 192.76-19 193.28-18.85 193.48-18.5 193.68-18.15 193.68-17.35L193.68-17.35 193.63-15Q193.63-14.25 193.58-12.8L193.58-12.8Q193.43-8.3 193.33-6.1L193.33-6.1Q193.28-4.35 192.28-1.7L192.28-1.7Q192.18-1.55 191.73-1.28 191.28-1 190.93-0.95L190.93-0.95Q190.83-0.95 190.51-1.28 190.18-1.6 190.03-1.85L190.03-1.85Q189.68-2.65 189.23-4L189.23-4 188.83-4.95 188.73-5.25 188.58-5.1 187.78-4.6Q187.18-4.1 186.48-3.8L186.48-3.8Q185.33-3.1 183.73-3.1L183.73-3.1Q181.73-3.1 179.93-4.23 178.13-5.35 177.08-7.3L177.08-7.3Q175.38-10.3 175.38-14.25L175.38-14.25Q175.38-16.25 175.93-19.3L175.93-19.3Q176.03-20.05 176.88-20.6L176.88-20.6Q177.63-21.15 178.63-21.15L178.63-21.15Q179.13-21.15 179.68-21L179.68-21ZM206.73-21.2Q206.88-20.7 206.78-19.65L206.78-19.65 206.18-13.75Q206.43-13.95 206.93-15.18 207.43-16.4 207.88-17.18 208.33-17.95 208.58-18.2L208.58-18.2Q210.93-20.45 213.88-20.9 216.83-21.35 220.38-21.3L220.38-21.3Q220.73-21.3 221.15-21.03 221.58-20.75 221.58-20.58 221.58-20.4 221.28-20.03 220.98-19.65 220.73-19.55L220.73-19.55Q217.73-18.55 215.45-17.25 213.18-15.95 211.53-13.85L211.53-13.85Q207.63-8.9 207.03-3.65L207.03-3.65Q206.88-2.25 206.18-1.78 205.48-1.3 204.23-1.3L204.23-1.3Q202.83-1.3 201.73-2.5 200.63-3.7 200.63-5.15L200.63-5.15Q200.68-10.45 200.68-21.05L200.68-21.05Q200.68-22.5 201.33-23.08 201.98-23.65 203.68-23.65L203.68-23.65Q204.93-23.65 205.8-22.95 206.68-22.25 206.73-21.2L206.73-21.2ZM227.88 1.1Q223.68 1.1 222.53-2.5L222.53-2.5Q222.93-2.5 223.6-2.48 224.28-2.45 224.73-2.35L224.73-2.35Q225.43-2.25 225.73-2.25L225.73-2.25Q227.98-2.25 229.48-4.25L229.48-4.25Q230.53-5.7 230.53-7.2L230.53-7.2Q230.53-8.2 230.03-9.15L230.03-9.15Q228.93-11.1 227.33-13.45L227.33-13.45Q226.28-15 225.43-16.4L225.43-16.4Q224.43-18 224.43-19.95L224.43-19.95Q224.43-21.75 225.45-23.13 226.48-24.5 228.48-24.85L228.48-24.85 230.08-25.15Q232.68-25.65 233.98-25.65L233.98-25.65Q236.13-25.65 237.78-24.65L237.78-24.65Q238.13-24.4 238.5-23.78 238.88-23.15 239.08-22.8L239.08-22.8Q238.73-22.65 238.1-22.33 237.48-22 237.03-21.95L237.03-21.95Q236.33-21.85 234.93-21.85L234.93-21.85Q233.58-21.85 232.88-21.8L232.88-21.8Q231.28-21.65 230.35-20.73 229.43-19.8 229.43-18.5L229.43-18.5Q229.43-17.5 230.03-16.45L230.03-16.45Q231.38-14.2 233.78-11.3L233.78-11.3Q235.58-9.05 235.58-6.65L235.58-6.65Q235.58-5.35 234.98-3.9L234.98-3.9Q232.93 1.1 227.88 1.1L227.88 1.1ZM267.07-18.5Q268.62-17.35 271.77-14.85L271.77-14.85Q272.07-15.65 272.32-16.23 272.57-16.8 272.72-17.2L272.72-17.2Q272.87-17.6 273.42-18.95 273.97-20.3 274.27-21.5L274.27-21.5Q274.82-23.85 276.77-23.85L276.77-23.85Q278.72-23.85 278.72-22L278.72-22Q278.72-21.4 278.57-20.8L278.57-20.8Q277.32-16.45 276.32-13.95L276.32-13.95Q275.97-13 275.97-12.5L275.97-12.5Q275.97-11.65 277.17-10.85L277.17-10.85Q282.67-7.6 282.67-1.3L282.67-1.3Q282.67 0.1 282.05 0.95 281.42 1.8 280.42 1.8L280.42 1.8Q280.02 1.8 279.57 1.65L279.57 1.65Q278.87 1.45 278.5 1.07 278.12 0.7 278.12 0.05L278.12 0.05Q278.12-0.3 278.17-0.45L278.17-0.45Q278.22-0.6 278.22-1L278.22-1Q278.22-2.65 276.9-4.8 275.57-6.95 274.12-7.7L274.12-7.7Q273.52-7.95 273.27-7.95L273.27-7.95Q272.87-7.95 272.57-7.7 272.27-7.45 271.72-6.85L271.72-6.85 270.72-5.8Q269.37-4.35 268.4-3.45 267.42-2.55 266.27-2L266.27-2Q264.42-1.1 262.57-1.1L262.57-1.1Q259.52-1.1 257.15-3.23 254.77-5.35 254.27-8.75L254.27-8.75Q254.12-9.65 254.12-10.45L254.12-10.45Q254.12-14.4 257.17-18.4L257.17-18.4Q257.87-19.35 257.87-19.85L257.87-19.85Q257.87-20.45 257.02-21.3L257.02-21.3Q255.17-23.1 254.15-25 253.12-26.9 253.12-29.25L253.12-29.25Q253.12-31.95 254.85-34.25 256.57-36.55 259.2-37.9 261.82-39.25 264.37-39.25L264.37-39.25Q266.67-39.25 268.12-38.2L268.12-38.2Q269.42-37.3 270.27-35.2 271.12-33.1 271.12-31.2L271.12-31.2Q271.12-30.85 271.02-30.25L271.02-30.25Q270.22-25.4 267.07-22.45L267.07-22.45Q265.92-21.4 265.92-20.4L265.92-20.4Q265.92-19.45 267.07-18.5L267.07-18.5ZM262.97-25Q263.57-26.3 264-27.33 264.42-28.35 264.77-29.1L264.77-29.1 265.67-31.35 265.32-31.6Q265.12-33.05 264.97-33.6L264.97-33.6Q264.67-34.7 264.27-35.25 263.87-35.8 263.27-35.8L263.27-35.8Q262.47-35.8 261.22-34.65L261.22-34.65Q260.17-33.65 259.6-32.35 259.02-31.05 259.02-29.7L259.02-29.7Q259.02-27.25 260.67-25L260.67-25Q261.37-24.1 261.92-24.1L261.92-24.1Q262.52-24.1 262.97-25L262.97-25ZM267.92-12.1Q266.82-12.95 265.92-13.6 265.02-14.25 264.37-14.75L264.37-14.75 262.32-16.25Q260.32-13.4 260.32-10L260.32-10Q260.32-9.25 260.52-7.75L260.52-7.75Q260.72-6.6 261.5-5.88 262.27-5.15 263.17-5.15L263.17-5.15Q264.02-5.15 264.57-5.75L264.57-5.75Q266.27-7.6 268.22-10.5L268.22-10.5Q268.32-10.6 268.32-10.95L268.32-10.95Q268.32-11.3 268.22-11.65 268.12-12 267.92-12.1L267.92-12.1ZM312.92-17.25Q313.06-19.3 313.22-21.03 313.37-22.75 313.52-24.15L313.52-24.15 313.92-28.15Q310.02-27.55 305.62-25.85L305.62-25.85Q304.56-25.45 303.67-25.45L303.67-25.45Q302.31-25.45 301.19-26.2 300.06-26.95 299.42-28.4L299.42-28.4Q299.72-29.5 300.54-30.05 301.37-30.6 302.81-31.15L302.81-31.15Q309.77-33.7 318.72-33.65L318.72-33.65Q322.97-33.65 327.59-33.3 332.22-32.95 333.02-32.9L333.02-32.9 336.52-32.65Q336.72-32.65 337.19-32.65 337.67-32.65 337.97-32.43 338.27-32.2 338.27-31.7L338.27-31.7Q338.27-30.45 336.47-30.25L336.47-30.25Q331.97-29.75 330.06-29.55L330.06-29.55Q328.12-29.45 327.12-29.35L327.12-29.35Q323.22-29.1 321.27-28.95L321.27-28.95Q320.06-28.85 319.62-28.68 319.17-28.5 319.04-28.08 318.92-27.65 318.81-26.3L318.81-26.3Q318.56-23.15 317.77-15.45L317.77-15.45Q316.97-8.5 316.77-5.85L316.77-5.85Q316.72-4.4 316.12-2.35L316.12-2.35Q315.72-1.05 315.47-0.63 315.22-0.2 314.74-0.1 314.27 0 312.97-0.05L312.97-0.05Q312.02-0.05 311.49-0.48 310.97-0.9 310.97-1.65L310.97-1.65Q310.97-1.8 311.06-2.3L311.06-2.3Q312.17-6.65 312.92-17.25L312.92-17.25ZM339.31-21.2Q339.46-20.7 339.36-19.65L339.36-19.65 338.76-13.75Q339.01-13.95 339.51-15.18 340.01-16.4 340.46-17.18 340.91-17.95 341.16-18.2L341.16-18.2Q343.51-20.45 346.46-20.9 349.41-21.35 352.96-21.3L352.96-21.3Q353.31-21.3 353.74-21.03 354.16-20.75 354.16-20.58 354.16-20.4 353.86-20.03 353.56-19.65 353.31-19.55L353.31-19.55Q350.31-18.55 348.04-17.25 345.76-15.95 344.11-13.85L344.11-13.85Q340.21-8.9 339.61-3.65L339.61-3.65Q339.46-2.25 338.76-1.78 338.06-1.3 336.81-1.3L336.81-1.3Q335.41-1.3 334.31-2.5 333.21-3.7 333.21-5.15L333.21-5.15Q333.26-10.45 333.26-21.05L333.26-21.05Q333.26-22.5 333.91-23.08 334.56-23.65 336.26-23.65L336.26-23.65Q337.51-23.65 338.39-22.95 339.26-22.25 339.31-21.2L339.31-21.2ZM369.31-2.55Q368.86-2.75 368.41-2.75L368.41-2.75Q367.96-2.75 367.64-2.53 367.31-2.3 366.91-1.85L366.91-1.85Q366.31-1.25 365.66-0.85L365.66-0.85Q365.06-0.5 363.46-0.2L363.46-0.2Q362.76-0.1 362.31-0.1L362.31-0.1Q360.21-0.1 357.94-1.03 355.66-1.95 354.71-3.25L354.71-3.25Q353.71-4.65 353.76-6.25L353.76-6.25Q353.81-8.65 355.76-11.05L355.76-11.05Q357.66-13.35 359.24-14.3 360.81-15.25 363.56-15.5L363.56-15.5Q364.16-15.5 365.29-15.7 366.41-15.9 366.41-16.25L366.41-16.25Q366.41-16.95 365.79-17.53 365.16-18.1 363.26-18.1L363.26-18.1Q362.56-18.1 361.16-18L361.16-18Q359.76-17.9 359.21-17.9L359.21-17.9Q357.51-17.9 356.76-18.45L356.76-18.45Q356.56-18.55 356.56-19.4L356.56-19.4Q356.56-20.9 357.61-21.3L357.61-21.3Q359.76-22.1 362.06-22.15L362.06-22.15Q364.96-22.15 367.44-20.88 369.91-19.6 371.06-17.7L371.06-17.7Q372.21-15.8 372.56-12.45L372.56-12.45Q372.96-8.7 372.96-2.9L372.96-2.9Q372.96-1.3 372.51-1.05L372.51-1.05Q372.11-0.8 371.76-0.8L371.76-0.8Q371.31-0.8 370.94-1.07 370.56-1.35 370.11-1.85L370.11-1.85Q369.66-2.4 369.31-2.55L369.31-2.55ZM361.41-3.15Q363.76-3.85 366.01-5.4L366.01-5.4Q366.51-5.75 366.91-6.3 367.31-6.85 367.41-7L367.41-7Q367.51-7.15 367.59-7.88 367.66-8.6 367.61-9.05L367.61-9.05Q367.56-9.2 367.44-9.85 367.31-10.5 367.06-11L367.06-11Q366.81-11.4 366.26-11.75 365.71-12.1 365.26-12.05L365.26-12.05Q364.31-12 363.21-11.35 362.11-10.7 361.16-9.6L361.16-9.6Q360.21-8.45 359.69-7.28 359.16-6.1 359.16-5.1L359.16-5.1Q359.26-3.75 359.91-3.3L359.91-3.3Q360.26-3.05 360.76-3.05L360.76-3.05Q361.16-3.05 361.41-3.15L361.41-3.15ZM386.01-10.95Q386.21-10.55 386.46-9.65L386.46-9.65Q387.01-7.95 387.11-7.75L387.11-7.75Q388.16-9.65 389.06-11.5L389.06-11.5Q390.51-14.5 391.31-15.7L391.31-15.7Q392.76-17.9 394.76-19.6L394.76-19.6Q395.16-20 395.71-20L395.71-20Q396.21-20 396.53-19.6 396.86-19.2 396.96-18.6L396.96-18.6Q397.01-18.4 397.01-17.95L397.01-17.95Q397.01-16.85 396.61-15.75L396.61-15.75Q395.86-13.8 392.91-6.2L392.91-6.2 390.76-0.65Q390.31 0.6 389.33 1.28 388.36 1.95 387.26 1.95L387.26 1.95Q385.61 1.95 384.36 0.55L384.36 0.55Q383.61-0.35 382.81-2.55L382.81-2.55Q380.51-9.6 378.96-14.65L378.96-14.65Q378.81-15.05 378.53-15.68 378.26-16.3 378.26-16.7L378.26-16.7Q378.26-17.4 379.01-17.95L379.01-17.95Q379.76-18.5 380.61-18.5L380.61-18.5Q381.56-18.5 382.96-17.55L382.96-17.55Q383.96-16.8 384.41-15.85 384.86-14.9 385.26-13.35L385.26-13.35Q385.66-11.75 386.01-10.95L386.01-10.95ZM410.11-7.8Q409.61-7.5 408.66-7.5L408.66-7.5Q408.31-7.5 407.81-7.55 407.31-7.6 406.96-7.55L406.96-7.55Q407.36-5.9 408.86-4.88 410.36-3.85 412.21-3.85L412.21-3.85Q413.81-3.85 415.06-4.55L415.06-4.55Q416.91-5.5 418.26-6.8L418.26-6.8Q419.21-7.75 420.06-7.75L420.06-7.75Q420.61-7.75 421.01-7.2L421.01-7.2Q421.41-6.55 421.41-5.6L421.41-5.6Q421.41-4.6 421.01-4.05L421.01-4.05Q419.71-2.05 417.63-1.3 415.56-0.55 412.81-0.55L412.81-0.55Q409.96-0.55 407.31-1.8 404.66-3.05 402.78-5.23 400.91-7.4 400.31-10.05L400.31-10.05Q399.91-11.6 399.91-13.1L399.91-13.1Q399.91-15.45 401.23-16.9 402.56-18.35 405.51-19.65L405.51-19.65Q408.21-20.8 410.51-20.8L410.51-20.8Q412.16-20.8 413.71-20.3L413.71-20.3Q418.51-18.8 418.51-16.2L418.51-16.2Q418.51-14.55 416.56-12.2L416.56-12.2Q415.61-11.1 414.31-10.25 413.01-9.4 411.78-8.72 410.56-8.05 410.11-7.8L410.11-7.8ZM412.21-17.05Q412.16-17.3 411.83-17.48 411.51-17.65 411.46-17.7L411.46-17.7Q410.11-17.8 408.71-16.93 407.31-16.05 406.38-14.7 405.46-13.35 405.46-12.1L405.46-12.1 405.51-11.7Q405.56-11.5 406.03-11.2 406.51-10.9 406.61-11L406.61-11Q410.16-13.65 411.96-15.25L411.96-15.25Q412.26-15.55 412.26-16.35L412.26-16.35Q412.26-16.85 412.21-17.05L412.21-17.05ZM430.15-2.3Q431.15-3.5 431.6-4.2L431.6-4.2Q432.15-4.95 432.75-4.95L432.75-4.95Q433.35-4.95 433.65-4.2L433.65-4.2Q434.35-2.2 434.35-1.05L434.35-1.05Q434.35-0.55 434.3-0.3L434.3-0.3Q434.1 0.7 433.18 1.1 432.25 1.5 431 1.4L431 1.4Q430.55 1.4 429.48 1.4 428.4 1.4 427.63 1.1 426.85 0.8 426.25 0.1L426.25 0.1Q424.95-1.45 424.95-2.9L424.95-2.9Q424.95-14.6 424.85-20.5L424.85-20.5 424.8-29.3Q424.8-31.05 424.45-32.5L424.45-32.5Q424.4-32.75 424.4-33.1L424.4-33.1Q424.4-34.95 426.9-34.95L426.9-34.95Q428.55-34.95 429.68-33.88 430.8-32.8 430.7-31.05L430.7-31.05Q430.55-28.4 430.3-23.1L430.3-23.1 430-17.1Q429.6-8.6 429.45-4.35L429.45-4.35Q429.4-3.85 429.5-3.25 429.6-2.65 429.65-2.5L429.65-2.5 430.15-2.3Z" opacity="1" transform="matrix(1,0,0,1,0,0)" fill="#000000" class="undefined-text-0" data-fill-palette-color="primary" id="text-0"></path></svg></g></svg></g></svg></g></svg></g><g transform="matrix(1,0,0,1,109.82708185867945,0)"><svg viewBox="0 0 177.84343628264102 54.293842685806894" height="54.293842685806894" width="177.84343628264102"><g><svg version="1.0" xmlns="http://www.w3.org/2000/svg" xmlns:xlink="http://www.w3.org/1999/xlink" x="8" y="0" viewBox="0 0 99.99958801269531 33.547000885009766" enable-background="new 0 0 99.999 33.547" xml:space="preserve" width="161.84343628264102" height="54.293842685806894" class="icon-icon-0" data-fill-palette-color="accent" id="icon-0"><path d="M99.212 10.535L79.778 8.898 75.278 0H40.965l-7.417 9.819L2.454 11.456 0 24.445h7.105c0.487-4.882 4.606-8.694 9.617-8.694 5.01 0 9.129 3.812 9.616 8.694h44.283c0.487-4.882 4.606-8.694 9.616-8.694 4.988 0 9.093 3.778 9.61 8.628l8.75-1.264C98.599 23.116 101.29 13.016 99.212 10.535zM55.768 10.765H35.21l6.722-8.898h13.836V10.765zM57.635 10.765V1.866h12.988l4.501 8.898H57.635z" fill="#000000" data-fill-palette-color="accent"></path><path d="M16.723 17.285c-4.491 0-8.132 3.64-8.132 8.131s3.641 8.131 8.132 8.131c4.49 0 8.131-3.64 8.131-8.131S21.213 17.285 16.723 17.285zM16.723 30.787c-2.966 0-5.37-2.404-5.37-5.37s2.404-5.37 5.37-5.37c2.965 0 5.369 2.404 5.369 5.37S19.688 30.787 16.723 30.787z" fill="#000000" data-fill-palette-color="accent"></path><path d="M80.238 17.285c-4.49 0-8.131 3.64-8.131 8.131s3.641 8.131 8.131 8.131c4.491 0 8.132-3.64 8.132-8.131S84.729 17.285 80.238 17.285zM80.238 30.787c-2.965 0-5.369-2.404-5.369-5.37s2.404-5.37 5.369-5.37c2.966 0 5.37 2.404 5.37 5.37S83.204 30.787 80.238 30.787z" fill="#000000" data-fill-palette-color="accent"></path></svg></g></svg></g><g><rect width="33.29396185867948" height="3.5428905677653524" y="49.75095211804154" x="287.6705181413205" fill="#000000" data-fill-palette-color="secondary"></rect><rect width="33.29396185867948" height="3.5428905677653524" y="49.75095211804154" x="76.53311999999997" fill="#000000" data-fill-palette-color="secondary"></rect></g></svg></g></svg><rect width="395.52" height="115.09684173490928" fill="none" stroke="none" visibility="hidden"></rect></g></svg></g></svg>